<svg width="186" height="171" viewBox="0 0 186 171" fill="none" xmlns="http://www.w3.org/2000/svg">
<path d="M3 168V91H26.5104V103.158V168H3Z" fill="#12372A"/>
<path d="M26.5104 103.158V168H3V91H26.5104V103.158ZM26.5104 103.158C42.645 103.158 57.4889 106.603 76.2972 128.487C80.2924 125.785 86.8999 121.901 105.8 125.954C112.801 127.455 119.169 128.487 123.779 133.553C129.262 139.577 126.699 141.32 123.779 144.697H91.9708" stroke="#12372A" stroke-width="5" stroke-linecap="round" stroke-linejoin="round"/>
<path d="M48.6855 167L47.2713 169.062C47.6876 169.347 48.1806 169.5 48.6855 169.5V167ZM133.362 167V169.5H134.106L134.728 169.094L133.362 167ZM183 134.604L184.366 136.697C184.98 136.297 185.387 135.648 185.48 134.921C185.573 134.195 185.342 133.464 184.85 132.922L183 134.604ZM136.769 142.934L134.626 144.222C134.973 144.8 135.54 145.214 136.197 145.368C136.854 145.522 137.545 145.405 138.114 145.041L136.769 142.934ZM123.001 141.433C122.172 142.537 122.395 144.104 123.499 144.933C124.603 145.762 126.17 145.54 126.999 144.436L123.001 141.433ZM17.5858 148.698L47.2713 169.062L50.0996 164.938L20.4142 144.575L17.5858 148.698ZM48.6855 169.5H133.362V164.5H48.6855V169.5ZM134.728 169.094L184.366 136.697L181.634 132.51L131.996 164.906L134.728 169.094ZM184.85 132.922C181.63 129.382 176.064 126.94 167.951 127.612C159.894 128.279 149.238 132.006 135.423 140.827L138.114 145.041C151.551 136.461 161.416 133.17 168.363 132.595C175.256 132.024 179.179 134.118 181.15 136.286L184.85 132.922ZM138.911 141.647C137.257 138.894 133.778 138.005 131.067 138.005C128.295 138.005 124.891 138.917 123.001 141.433L126.999 144.436C127.542 143.712 129.049 143.005 131.067 143.005C133.145 143.005 134.333 143.735 134.626 144.222L138.911 141.647Z" fill="#12372A"/>
<circle cx="92" cy="74" r="32.5" stroke="#12372A" stroke-width="5"/>
<path d="M103 67.7338C103 54.2612 79.229 55.2592 81.1055 67.7338C82.4567 76.7156 103 70.4206 103 80.7075C103 94.1802 81.1055 94.6792 81.1055 80.7075" stroke="#12372A" stroke-width="5" stroke-linecap="round"/>
<path d="M89.5 58C89.5 59.3807 90.6193 60.5 92 60.5C93.3807 60.5 94.5 59.3807 94.5 58H89.5ZM94.5 50C94.5 48.6193 93.3807 47.5 92 47.5C90.6193 47.5 89.5 48.6193 89.5 50H94.5ZM89.5 99C89.5 100.381 90.6193 101.5 92 101.5C93.3807 101.5 94.5 100.381 94.5 99H89.5ZM94.5 58V50H89.5V58H94.5ZM89.5 50V74.5H94.5V50H89.5ZM89.5 74.5V99H94.5V74.5H89.5Z" fill="#12372A"/>
<path d="M91.4998 18.5C91.9998 12.5833 97.0829 0.668601 109.5 4C130 9.50002 103.5 6.25004 91.4998 18.5Z" fill="#12372A"/>
<path d="M89.4998 33C89.3332 28 89.2 15.9 72 18.5C50.5 21.75 79.4999 23.5 89.4998 33Z" fill="#12372A"/>
<path d="M91.4998 40.4999V18.5M93.1206 13.5L91.4998 18.5M91.4998 18.5C91.9998 12.5833 97.0829 0.668601 109.5 4C130 9.50002 103.5 6.25004 91.4998 18.5ZM89.4998 33C89.3332 28 89.2 15.9 72 18.5C50.5 21.75 79.4999 23.5 89.4998 33Z" stroke="#12372A" stroke-width="5" stroke-linecap="round"/>
</svg>
