<svg width="186" height="171" viewBox="0 0 186 171" fill="none" xmlns="http://www.w3.org/2000/svg">
<path d="M3 167.577V90.5774H26.5104V102.735V167.577H3Z" fill="#FBFADA"/>
<path d="M26.5104 102.735V167.577H3V90.5774H26.5104V102.735ZM26.5104 102.735C42.645 102.735 57.4889 106.18 76.2972 128.064C80.2924 125.362 86.8999 121.479 105.8 125.531C112.801 127.032 119.169 128.064 123.779 133.13C129.262 139.155 126.699 140.898 123.779 144.275H91.9708" stroke="#FBFADA" stroke-width="5" stroke-linecap="round" stroke-linejoin="round"/>
<path d="M48.6855 166.577L47.2713 168.639C47.6876 168.925 48.1806 169.077 48.6855 169.077V166.577ZM133.362 166.577V169.077H134.106L134.728 168.671L133.362 166.577ZM183 134.181L184.366 136.275C184.98 135.875 185.387 135.225 185.48 134.499C185.573 133.772 185.342 133.041 184.85 132.499L183 134.181ZM136.769 142.512L134.626 143.799C134.973 144.378 135.54 144.791 136.197 144.945C136.854 145.1 137.545 144.982 138.114 144.619L136.769 142.512ZM123.001 141.01C122.172 142.114 122.395 143.681 123.499 144.511C124.603 145.34 126.17 145.117 126.999 144.013L123.001 141.01ZM17.5858 148.276L47.2713 168.639L50.0996 164.516L20.4142 144.153L17.5858 148.276ZM48.6855 169.077H133.362V164.077H48.6855V169.077ZM134.728 168.671L184.366 136.275L181.634 132.088L131.996 164.484L134.728 168.671ZM184.85 132.499C181.63 128.959 176.064 126.518 167.951 127.189C159.894 127.856 149.238 131.583 135.423 140.405L138.114 144.619C151.551 136.039 161.416 132.747 168.363 132.172C175.256 131.602 179.179 133.695 181.15 135.863L184.85 132.499ZM138.911 141.224C137.257 138.471 133.778 137.582 131.067 137.582C128.295 137.582 124.891 138.494 123.001 141.01L126.999 144.013C127.542 143.29 129.049 142.582 131.067 142.582C133.145 142.582 134.333 143.312 134.626 143.799L138.911 141.224Z" fill="#FBFADA"/>
<circle cx="92" cy="73.5774" r="32.5" stroke="#FBFADA" stroke-width="5"/>
<path d="M103 67.3113C103 53.8386 79.229 54.8366 81.1055 67.3113C82.4567 76.293 103 69.998 103 80.2849C103 93.7576 81.1055 94.2566 81.1055 80.2849" stroke="#FBFADA" stroke-width="5" stroke-linecap="round"/>
<path d="M89.5 57.5774C89.5 58.9581 90.6193 60.0774 92 60.0774C93.3807 60.0774 94.5 58.9581 94.5 57.5774H89.5ZM94.5 49.5774C94.5 48.1967 93.3807 47.0774 92 47.0774C90.6193 47.0774 89.5 48.1967 89.5 49.5774H94.5ZM89.5 98.5774C89.5 99.9581 90.6193 101.077 92 101.077C93.3807 101.077 94.5 99.9581 94.5 98.5774H89.5ZM94.5 57.5774V49.5774H89.5V57.5774H94.5ZM89.5 49.5774V74.0774H94.5V49.5774H89.5ZM89.5 74.0774V98.5774H94.5V74.0774H89.5Z" fill="#FBFADA"/>
<path d="M91.4998 18.0774C91.9998 12.1607 97.0829 0.246008 109.5 3.57741C130 9.07743 103.5 5.82745 91.4998 18.0774Z" fill="#FBFADA"/>
<path d="M89.4998 32.5774C89.3332 27.5774 89.2 15.4774 72 18.0774C50.5 21.3274 79.4999 23.0774 89.4998 32.5774Z" fill="#FBFADA"/>
<path d="M91.4998 40.0773V18.0774M93.1206 13.0774L91.4998 18.0774M91.4998 18.0774C91.9998 12.1607 97.0829 0.246008 109.5 3.57741C130 9.07743 103.5 5.82745 91.4998 18.0774ZM89.4998 32.5774C89.3332 27.5774 89.2 15.4774 72 18.0774C50.5 21.3274 79.4999 23.0774 89.4998 32.5774Z" stroke="#FBFADA" stroke-width="5" stroke-linecap="round"/>
</svg>
